<?xml version="1.0" encoding="iso-8859-1"?>
<!-- Generator: Adobe Illustrator 18.0.0, SVG Export Plug-In . SVG Version: 6.00 Build 0)  -->
<!DOCTYPE svg PUBLIC "-//W3C//DTD SVG 1.1//EN" "http://www.w3.org/Graphics/SVG/1.1/DTD/svg11.dtd">
<svg version="1.1" id="Capa_1" xmlns="http://www.w3.org/2000/svg" xmlns:xlink="http://www.w3.org/1999/xlink" x="0px" y="0px"
	 viewBox="0 0 238.194 238.194" style="enable-background:new 0 0 238.194 238.194;" xml:space="preserve">
<path d="M17.718,86.072c-3.658,10.777-5.643,22.32-5.643,34.318c0,34.09,16.022,64.507,40.931,84.12l-19.244,19.245l10.606,10.606
	l21.279-21.28c15.737,9.11,33.995,14.33,53.449,14.33c19.455,0,37.712-5.22,53.45-14.33l21.279,21.28l10.606-10.606l-19.245-19.245
	c24.909-19.613,40.931-50.03,40.931-84.12c0-11.998-1.985-23.541-5.643-34.318c10.773-8.427,17.718-21.533,17.718-36.239
	c0-25.364-20.635-45.999-45.999-45.999c-14.128,0-26.783,6.407-35.228,16.462c-11.779-4.472-24.543-6.928-37.871-6.928
	s-26.091,2.456-37.871,6.928C72.782,10.24,60.126,3.833,45.999,3.833C20.635,3.833,0,24.468,0,49.832
	C0,64.538,6.945,77.645,17.718,86.072z M192.195,18.833c17.093,0,30.999,13.906,30.999,30.999c0,8.444-3.398,16.107-8.893,21.703
	c-9.654-18.736-24.68-34.268-43.026-44.556C176.794,21.924,184.14,18.833,192.195,18.833z M119.097,28.367
	c50.741,0,92.023,41.281,92.023,92.022c0,50.741-41.281,92.021-92.023,92.021c-50.741,0-92.021-41.281-92.021-92.021
	C27.075,69.649,68.356,28.367,119.097,28.367z M45.999,18.833c8.056,0,15.402,3.091,20.92,8.146
	c-18.346,10.289-33.373,25.82-43.026,44.556C18.397,65.939,15,58.277,15,49.832C15,32.739,28.906,18.833,45.999,18.833z
	 M165.365,127.89h-53.769V76.285h15v36.605h38.769V127.89z"/>
<g>
</g>
<g>
</g>
<g>
</g>
<g>
</g>
<g>
</g>
<g>
</g>
<g>
</g>
<g>
</g>
<g>
</g>
<g>
</g>
<g>
</g>
<g>
</g>
<g>
</g>
<g>
</g>
<g>
</g>
</svg>
